<svg width="20" height="27" viewBox="0 0 20 27" fill="none" xmlns="http://www.w3.org/2000/svg">
<path d="M2.48122 14.7552L9.99852 26L17.5158 14.7552C18.4096 13.4174 18.9195 11.8659 18.9912 10.2655C19.063 8.6651 18.694 7.07538 17.9234 5.66504C17.1527 4.25469 16.0093 3.07634 14.6143 2.25501C13.2193 1.43367 11.6248 1 10 1C8.37521 1 6.78072 1.43367 5.38572 2.25501C3.99073 3.07634 2.84726 4.25469 2.07665 5.66504C1.30604 7.07538 0.93703 8.6651 1.00878 10.2655C1.08053 11.8659 1.59037 13.4174 2.48419 14.7552H2.48122ZM9.99852 5.3143C10.8976 5.3143 11.7765 5.57717 12.5241 6.06967C13.2717 6.56218 13.8544 7.26219 14.1984 8.0812C14.5425 8.9002 14.6325 9.80141 14.4571 10.6709C14.2817 11.5403 13.8488 12.339 13.213 12.9658C12.5772 13.5926 11.7672 14.0195 10.8854 14.1925C10.0036 14.3654 9.08952 14.2766 8.25885 13.9374C7.42819 13.5982 6.7182 13.0237 6.21869 12.2866C5.71917 11.5495 5.45255 10.6829 5.45255 9.79644C5.45412 8.60818 5.93358 7.46902 6.78577 6.62879C7.63796 5.78856 8.79333 5.31584 9.99852 5.3143V5.3143Z" stroke="white"/>
</svg>
