<svg width="232" height="173" viewBox="0 0 232 173" fill="none" xmlns="http://www.w3.org/2000/svg">
<circle cx="117.428" cy="89.5208" r="80.9954" stroke="white" stroke-width="2"/>
<path d="M197.958 6.00023C197.958 5.44795 197.511 5.00023 196.958 5.00023L187.958 5.00023C187.406 5.00023 186.958 5.44794 186.958 6.00024C186.958 6.55252 187.406 7.00023 187.958 7.00024L195.958 7.00023L195.958 15.0002C195.958 15.5525 196.406 16.0002 196.958 16.0002C197.511 16.0002 197.958 15.5525 197.958 15.0002L197.958 6.00023ZM36.1402 168.232L197.665 6.70734L196.251 5.29312L34.726 166.818L36.1402 168.232Z" fill="white"/>
<path d="M168.693 5.99999C168.693 5.44771 168.245 4.99999 167.693 4.99999L158.693 4.99999C158.141 4.99999 157.693 5.4477 157.693 5.99999C157.693 6.55227 158.141 6.99999 158.693 6.99999L166.693 6.99999L166.693 15C166.693 15.5523 167.141 16 167.693 16C168.245 16 168.693 15.5523 168.693 15L168.693 5.99999ZM6.87508 168.232L168.4 6.70709L166.986 5.29288L5.46086 166.818L6.87508 168.232Z" fill="white"/>
<path d="M226.28 6.00023C226.28 5.44795 225.832 5.00023 225.28 5.00023L216.28 5.00023C215.727 5.00023 215.28 5.44794 215.28 6.00024C215.28 6.55252 215.727 7.00023 216.28 7.00024L224.28 7.00023L224.28 15.0002C224.28 15.5525 224.727 16.0002 225.28 16.0002C225.832 16.0002 226.28 15.5525 226.28 15.0002L226.28 6.00023ZM64.4615 168.232L225.987 6.70734L224.572 5.29312L63.0473 166.818L64.4615 168.232Z" fill="white"/>
</svg>
