<svg width="24" height="24" viewBox="0 0 24 24" fill="none" xmlns="http://www.w3.org/2000/svg">
<path d="M16.9561 0.750488H6.29344C2.82318 0.750488 0 3.57367 0 7.04393V17.7068C0 21.1769 2.82318 24 6.29344 24H16.9563C20.4264 24 23.2496 21.1769 23.2496 17.7068V7.04393C23.2496 3.57367 20.4264 0.750488 16.9561 0.750488V0.750488ZM11.6248 18.7324C8.1194 18.7324 5.26766 15.8807 5.26766 12.3753C5.26766 8.86988 8.1194 6.01814 11.6248 6.01814C15.1302 6.01814 17.9819 8.86988 17.9819 12.3753C17.9819 15.8807 15.1302 18.7324 11.6248 18.7324ZM18.1339 7.51736C17.098 7.51736 16.2555 6.67481 16.2555 5.63891C16.2555 4.60301 17.098 3.76027 18.1339 3.76027C19.1698 3.76027 20.0126 4.60301 20.0126 5.63891C20.0126 6.67481 19.1698 7.51736 18.1339 7.51736Z" fill="white"/>
<path d="M11.624 7.37988C8.87037 7.37988 6.62988 9.62019 6.62988 12.374C6.62988 15.1277 8.87037 17.3682 11.624 17.3682C14.3778 17.3682 16.6182 15.1277 16.6182 12.374C16.6182 9.62019 14.3778 7.37988 11.624 7.37988Z" fill="white"/>
<path d="M9.4754 3.03613C9.32692 3.03613 9.20605 3.157 9.20605 3.30548C9.20605 3.45396 9.32692 3.57482 9.4754 3.57482C9.62397 3.57482 9.74484 3.45405 9.74484 3.30548C9.74484 3.1569 9.62397 3.03613 9.4754 3.03613Z" fill="white"/>
</svg>
