<svg width="28" height="16" viewBox="0 0 28 16" fill="none" xmlns="http://www.w3.org/2000/svg">
<path d="M27.4336 14.4937C27.4002 14.4222 27.3716 14.365 27.3414 14.3189C26.8727 13.4769 25.9782 12.4426 24.6596 11.216L24.631 11.1858L24.6167 11.1731L24.6024 11.1588H24.5896C23.9891 10.5869 23.6094 10.204 23.4505 10.007C23.1597 9.63361 23.093 9.2523 23.2535 8.86941C23.3647 8.57866 23.7873 7.96698 24.5182 7.0296C24.9026 6.53391 25.2077 6.13671 25.4317 5.83643C27.0507 3.68364 27.7529 2.30617 27.5368 1.7072L27.4542 1.56739C27.3986 1.48319 27.2524 1.40534 27.0189 1.33543C26.7853 1.26552 26.4851 1.25281 26.1212 1.30048L22.0762 1.32907C22.0111 1.30683 21.9157 1.30683 21.7966 1.33543C21.6742 1.36403 21.6139 1.37833 21.6139 1.37833L21.5424 1.41328L21.4868 1.45618C21.4407 1.48318 21.3883 1.53244 21.3327 1.60234C21.277 1.67225 21.2294 1.75487 21.1928 1.8486C20.7528 2.9814 20.2507 4.03476 19.6899 5.00709C19.3419 5.58858 19.0242 6.09223 18.7334 6.51643C18.4427 6.94381 18.1996 7.2568 18.0026 7.45857C17.8072 7.65876 17.6292 7.8224 17.4703 7.94156C17.3099 8.0639 17.1891 8.11474 17.1049 8.09726C17.0223 8.0782 16.9413 8.05913 16.8682 8.04007C16.7363 7.95586 16.6315 7.84147 16.552 7.69689C16.471 7.55231 16.4186 7.3696 16.39 7.14876C16.3614 6.92792 16.3455 6.73886 16.3407 6.57998C16.3375 6.4211 16.3391 6.1955 16.3487 5.90634C16.3566 5.61559 16.363 5.41858 16.363 5.3169C16.363 4.96102 16.3693 4.57494 16.3836 4.15868C16.3979 3.74243 16.4106 3.41196 16.4186 3.16888C16.4265 2.92579 16.4329 2.66841 16.4329 2.39673C16.4329 2.12664 16.4154 1.91374 16.3836 1.75804C16.3518 1.60393 16.301 1.45459 16.2359 1.30842C16.1691 1.16384 16.0722 1.05104 15.9451 0.971599C15.8196 0.89216 15.6639 0.828609 15.4764 0.780945C14.9791 0.668142 14.3484 0.607769 13.581 0.598236C11.8381 0.579171 10.7196 0.693563 10.2239 0.935057C10.0285 1.03992 9.84897 1.17973 9.6901 1.35767C9.52327 1.56421 9.49944 1.67702 9.62019 1.69449C10.1826 1.7787 10.5798 1.98047 10.8149 2.29823L10.8992 2.46664C10.9643 2.58738 11.031 2.80346 11.0946 3.11168C11.1613 3.42149 11.2026 3.76308 11.2217 4.13803C11.2678 4.8212 11.2678 5.40587 11.2217 5.89363C11.1756 6.37979 11.1311 6.75951 11.0882 7.0296C11.0469 7.30128 10.9834 7.52212 10.8992 7.69053C10.8149 7.85894 10.7578 7.96222 10.7307 8.00035C10.7021 8.03689 10.6783 8.06072 10.6608 8.07025C10.5385 8.11792 10.4114 8.14016 10.2811 8.14016C10.1508 8.14016 9.99196 8.07502 9.80449 7.94315C9.61701 7.81128 9.42159 7.63175 9.22141 7.40297C9.01963 7.17418 8.79244 6.85325 8.53982 6.44017C8.28562 6.02867 8.02506 5.54251 7.75338 4.98008L7.52777 4.57335C7.38796 4.31121 7.19572 3.9299 6.95263 3.42785C6.70955 2.92738 6.49348 2.44281 6.306 1.97412C6.23292 1.7787 6.12011 1.62935 5.96918 1.52608L5.90086 1.48319C5.85161 1.44664 5.77694 1.40692 5.67526 1.36403C5.57199 1.32272 5.46554 1.29094 5.35115 1.27347L1.50472 1.30048C1.1107 1.30048 0.843785 1.38945 0.703973 1.5658L0.646777 1.6516C0.619768 1.69926 0.605469 1.77393 0.605469 1.8772C0.605469 1.98047 0.634067 2.10757 0.689674 2.25692C1.2521 3.57719 1.86219 4.8498 2.52153 6.07634C3.18247 7.30287 3.75443 8.29109 4.24059 9.0394C4.72835 9.78931 5.22404 10.4947 5.72927 11.1588C6.23609 11.8229 6.56974 12.2503 6.73338 12.4378C6.89861 12.6269 7.02731 12.7651 7.12104 12.8604L7.47057 13.1956C7.69618 13.4228 8.02665 13.6913 8.46197 14.0043C8.8973 14.3173 9.38028 14.6271 9.90776 14.9306C10.4368 15.234 11.0533 15.4835 11.7555 15.6757C12.4577 15.868 13.1425 15.9458 13.8066 15.9061H15.4224C15.7513 15.8807 15.9975 15.7758 16.1675 15.5995L16.2216 15.5311C16.2581 15.4724 16.2946 15.3882 16.3264 15.2706C16.3582 15.153 16.3757 15.0259 16.3757 14.8829C16.3661 14.4826 16.3963 14.1203 16.4678 13.7962C16.5377 13.4737 16.6172 13.2306 16.7045 13.0654C16.7951 12.9017 16.8936 12.7635 17.008 12.6507C17.1176 12.5395 17.1987 12.4712 17.2447 12.4457C17.2908 12.4235 17.3289 12.4092 17.3559 12.3981C17.5816 12.3234 17.8453 12.3965 18.1503 12.6173C18.4538 12.8382 18.7382 13.1083 19.0067 13.4324C19.2736 13.7549 19.5945 14.1187 19.9663 14.5207C20.3428 14.9242 20.6685 15.2213 20.9498 15.4199L21.231 15.5868C21.4184 15.698 21.6615 15.8012 21.9618 15.8966C22.2605 15.9903 22.5242 16.011 22.7467 15.9649L26.3421 15.9093C26.6995 15.9093 26.9744 15.8505 27.1714 15.7329C27.3684 15.6154 27.4828 15.4883 27.5225 15.3484C27.5591 15.2086 27.5607 15.0497 27.5289 14.8702C27.4987 14.6891 27.4653 14.5652 27.4336 14.4937Z" fill="white"/>
</svg>
