<svg width="30" height="34" viewBox="0 0 30 34" fill="none" xmlns="http://www.w3.org/2000/svg">
<mask id="path-1-outside-1" maskUnits="userSpaceOnUse" x="-0.368083" y="-0.381453" width="31.0364" height="35.2733" fill="black">
<rect fill="white" x="-0.368083" y="-0.381453" width="31.0364" height="35.2733"/>
<path d="M25.6835 8.58943C24.67 5.69369 22.0081 3.82395 18.9029 3.82598C18.6659 3.8256 18.4291 3.84252 18.1999 3.85831C18.0929 3.86594 17.9858 3.8733 17.8789 3.87916C17.8636 3.88002 17.8485 3.88226 17.8333 3.88567L16.8867 4.09886C16.8702 4.10257 16.854 4.10794 16.8384 4.11436C16.7146 4.16767 16.5899 4.21857 16.4651 4.2698C16.1809 4.38638 15.8874 4.5074 15.6039 4.6504C14.48 5.21703 13.5586 6.04524 12.865 7.11138C9.94257 11.6003 7.02439 16.0929 4.10908 20.5869C3.38161 21.7089 3.0774 22.9535 3.20506 24.2893C3.2079 24.3175 3.20431 24.3466 3.20187 24.3758L3.19762 24.4397C3.19699 24.4639 3.1989 24.4877 3.20383 24.5109L3.37553 25.3171C3.37882 25.3326 3.38354 25.348 3.38958 25.3628C3.4501 25.513 3.51009 25.6648 3.56951 25.8153L3.61035 25.919C4.54774 28.2867 7.15271 29.7416 9.67026 29.3026C9.77919 29.2836 9.88649 29.2623 9.99238 29.2384C11.5542 28.8864 12.7944 28.0119 13.6819 26.6356C14.3566 25.5902 15.0352 24.5477 15.7136 23.5049L18.6453 18.9945C19.8606 17.1246 21.0761 15.2546 22.2892 13.3826C23.2854 11.8426 23.2388 9.94302 22.1702 8.54381C21.3395 7.45684 20.0891 6.87039 18.7394 6.93421C17.3676 6.99867 16.1395 7.72025 15.3703 8.91321C13.9287 11.1494 12.4928 13.3897 11.0567 15.6304L8.92399 18.9564L8.90346 18.9899C8.87223 19.0409 8.8409 19.0927 8.81477 19.146C8.74753 19.2837 8.80345 19.4488 8.93974 19.5149C9.07608 19.5813 9.24106 19.5236 9.30824 19.3857C9.32646 19.3481 9.34905 19.3121 9.37116 19.2764L11.5183 15.9261C12.9539 13.6858 14.3896 11.4461 15.8313 9.20992C16.5017 8.17065 17.5689 7.54196 18.7594 7.48595C19.9279 7.43057 21.0117 7.93983 21.7325 8.8828C22.6581 10.0949 22.696 11.7439 21.8293 13.0839C20.6162 14.9557 19.4011 16.8252 18.1858 18.6949L15.2541 23.2055C14.5751 24.2491 13.8962 25.2922 13.2212 26.3383C12.3496 27.6907 11.1589 28.4822 9.58165 28.7579C7.35059 29.1468 4.9523 27.8083 4.1222 25.7104L4.08148 25.6072C4.02445 25.4626 3.96697 25.3172 3.90884 25.1728L3.75012 24.4274L3.75103 24.4128C3.75607 24.3498 3.75906 24.2867 3.75296 24.2283C3.63791 23.0235 3.91261 21.8988 4.56961 20.8857C7.48475 16.3923 10.4027 11.8998 13.3248 7.41093C13.9636 6.42879 14.8123 5.6661 15.8469 5.14443C16.111 5.01097 16.3946 4.89451 16.669 4.78187C16.7885 4.73298 16.9078 4.68388 17.0264 4.63318L17.926 4.43058C18.0282 4.42462 18.1305 4.41776 18.2327 4.41035C18.4622 4.39422 18.6788 4.37895 18.8965 4.37934C21.768 4.37764 24.2282 6.10411 25.1643 8.77832C25.8807 10.8212 25.6607 12.7796 24.5112 14.5998C22.9158 17.1303 21.2688 19.689 19.676 22.1632C19.1138 23.0365 18.5518 23.9098 17.9905 24.7837C17.9079 24.9127 17.944 25.0834 18.0715 25.1651C18.199 25.2471 18.3693 25.2087 18.4522 25.0799C19.0132 24.2061 19.5753 23.3331 20.1372 22.4598C21.7309 19.9846 23.3786 17.4246 24.975 14.8921C26.2205 12.9203 26.4587 10.8 25.6835 8.58943Z"/>
</mask>
<path d="M25.6835 8.58943C24.67 5.69369 22.0081 3.82395 18.9029 3.82598C18.6659 3.8256 18.4291 3.84252 18.1999 3.85831C18.0929 3.86594 17.9858 3.8733 17.8789 3.87916C17.8636 3.88002 17.8485 3.88226 17.8333 3.88567L16.8867 4.09886C16.8702 4.10257 16.854 4.10794 16.8384 4.11436C16.7146 4.16767 16.5899 4.21857 16.4651 4.2698C16.1809 4.38638 15.8874 4.5074 15.6039 4.6504C14.48 5.21703 13.5586 6.04524 12.865 7.11138C9.94257 11.6003 7.02439 16.0929 4.10908 20.5869C3.38161 21.7089 3.0774 22.9535 3.20506 24.2893C3.2079 24.3175 3.20431 24.3466 3.20187 24.3758L3.19762 24.4397C3.19699 24.4639 3.1989 24.4877 3.20383 24.5109L3.37553 25.3171C3.37882 25.3326 3.38354 25.348 3.38958 25.3628C3.4501 25.513 3.51009 25.6648 3.56951 25.8153L3.61035 25.919C4.54774 28.2867 7.15271 29.7416 9.67026 29.3026C9.77919 29.2836 9.88649 29.2623 9.99238 29.2384C11.5542 28.8864 12.7944 28.0119 13.6819 26.6356C14.3566 25.5902 15.0352 24.5477 15.7136 23.5049L18.6453 18.9945C19.8606 17.1246 21.0761 15.2546 22.2892 13.3826C23.2854 11.8426 23.2388 9.94302 22.1702 8.54381C21.3395 7.45684 20.0891 6.87039 18.7394 6.93421C17.3676 6.99867 16.1395 7.72025 15.3703 8.91321C13.9287 11.1494 12.4928 13.3897 11.0567 15.6304L8.92399 18.9564L8.90346 18.9899C8.87223 19.0409 8.8409 19.0927 8.81477 19.146C8.74753 19.2837 8.80345 19.4488 8.93974 19.5149C9.07608 19.5813 9.24106 19.5236 9.30824 19.3857C9.32646 19.3481 9.34905 19.3121 9.37116 19.2764L11.5183 15.9261C12.9539 13.6858 14.3896 11.4461 15.8313 9.20992C16.5017 8.17065 17.5689 7.54196 18.7594 7.48595C19.9279 7.43057 21.0117 7.93983 21.7325 8.8828C22.6581 10.0949 22.696 11.7439 21.8293 13.0839C20.6162 14.9557 19.4011 16.8252 18.1858 18.6949L15.2541 23.2055C14.5751 24.2491 13.8962 25.2922 13.2212 26.3383C12.3496 27.6907 11.1589 28.4822 9.58165 28.7579C7.35059 29.1468 4.9523 27.8083 4.1222 25.7104L4.08148 25.6072C4.02445 25.4626 3.96697 25.3172 3.90884 25.1728L3.75012 24.4274L3.75103 24.4128C3.75607 24.3498 3.75906 24.2867 3.75296 24.2283C3.63791 23.0235 3.91261 21.8988 4.56961 20.8857C7.48475 16.3923 10.4027 11.8998 13.3248 7.41093C13.9636 6.42879 14.8123 5.6661 15.8469 5.14443C16.111 5.01097 16.3946 4.89451 16.669 4.78187C16.7885 4.73298 16.9078 4.68388 17.0264 4.63318L17.926 4.43058C18.0282 4.42462 18.1305 4.41776 18.2327 4.41035C18.4622 4.39422 18.6788 4.37895 18.8965 4.37934C21.768 4.37764 24.2282 6.10411 25.1643 8.77832C25.8807 10.8212 25.6607 12.7796 24.5112 14.5998C22.9158 17.1303 21.2688 19.689 19.676 22.1632C19.1138 23.0365 18.5518 23.9098 17.9905 24.7837C17.9079 24.9127 17.944 25.0834 18.0715 25.1651C18.199 25.2471 18.3693 25.2087 18.4522 25.0799C19.0132 24.2061 19.5753 23.3331 20.1372 22.4598C21.7309 19.9846 23.3786 17.4246 24.975 14.8921C26.2205 12.9203 26.4587 10.8 25.6835 8.58943Z" fill="#2C57AB"/>
<path d="M25.6835 8.58943C24.67 5.69369 22.0081 3.82395 18.9029 3.82598C18.6659 3.8256 18.4291 3.84252 18.1999 3.85831C18.0929 3.86594 17.9858 3.8733 17.8789 3.87916C17.8636 3.88002 17.8485 3.88226 17.8333 3.88567L16.8867 4.09886C16.8702 4.10257 16.854 4.10794 16.8384 4.11436C16.7146 4.16767 16.5899 4.21857 16.4651 4.2698C16.1809 4.38638 15.8874 4.5074 15.6039 4.6504C14.48 5.21703 13.5586 6.04524 12.865 7.11138C9.94257 11.6003 7.02439 16.0929 4.10908 20.5869C3.38161 21.7089 3.0774 22.9535 3.20506 24.2893C3.2079 24.3175 3.20431 24.3466 3.20187 24.3758L3.19762 24.4397C3.19699 24.4639 3.1989 24.4877 3.20383 24.5109L3.37553 25.3171C3.37882 25.3326 3.38354 25.348 3.38958 25.3628C3.4501 25.513 3.51009 25.6648 3.56951 25.8153L3.61035 25.919C4.54774 28.2867 7.15271 29.7416 9.67026 29.3026C9.77919 29.2836 9.88649 29.2623 9.99238 29.2384C11.5542 28.8864 12.7944 28.0119 13.6819 26.6356C14.3566 25.5902 15.0352 24.5477 15.7136 23.5049L18.6453 18.9945C19.8606 17.1246 21.0761 15.2546 22.2892 13.3826C23.2854 11.8426 23.2388 9.94302 22.1702 8.54381C21.3395 7.45684 20.0891 6.87039 18.7394 6.93421C17.3676 6.99867 16.1395 7.72025 15.3703 8.91321C13.9287 11.1494 12.4928 13.3897 11.0567 15.6304L8.92399 18.9564L8.90346 18.9899C8.87223 19.0409 8.8409 19.0927 8.81477 19.146C8.74753 19.2837 8.80345 19.4488 8.93974 19.5149C9.07608 19.5813 9.24106 19.5236 9.30824 19.3857C9.32646 19.3481 9.34905 19.3121 9.37116 19.2764L11.5183 15.9261C12.9539 13.6858 14.3896 11.4461 15.8313 9.20992C16.5017 8.17065 17.5689 7.54196 18.7594 7.48595C19.9279 7.43057 21.0117 7.93983 21.7325 8.8828C22.6581 10.0949 22.696 11.7439 21.8293 13.0839C20.6162 14.9557 19.4011 16.8252 18.1858 18.6949L15.2541 23.2055C14.5751 24.2491 13.8962 25.2922 13.2212 26.3383C12.3496 27.6907 11.1589 28.4822 9.58165 28.7579C7.35059 29.1468 4.9523 27.8083 4.1222 25.7104L4.08148 25.6072C4.02445 25.4626 3.96697 25.3172 3.90884 25.1728L3.75012 24.4274L3.75103 24.4128C3.75607 24.3498 3.75906 24.2867 3.75296 24.2283C3.63791 23.0235 3.91261 21.8988 4.56961 20.8857C7.48475 16.3923 10.4027 11.8998 13.3248 7.41093C13.9636 6.42879 14.8123 5.6661 15.8469 5.14443C16.111 5.01097 16.3946 4.89451 16.669 4.78187C16.7885 4.73298 16.9078 4.68388 17.0264 4.63318L17.926 4.43058C18.0282 4.42462 18.1305 4.41776 18.2327 4.41035C18.4622 4.39422 18.6788 4.37895 18.8965 4.37934C21.768 4.37764 24.2282 6.10411 25.1643 8.77832C25.8807 10.8212 25.6607 12.7796 24.5112 14.5998C22.9158 17.1303 21.2688 19.689 19.676 22.1632C19.1138 23.0365 18.5518 23.9098 17.9905 24.7837C17.9079 24.9127 17.944 25.0834 18.0715 25.1651C18.199 25.2471 18.3693 25.2087 18.4522 25.0799C19.0132 24.2061 19.5753 23.3331 20.1372 22.4598C21.7309 19.9846 23.3786 17.4246 24.975 14.8921C26.2205 12.9203 26.4587 10.8 25.6835 8.58943Z" stroke="#2C57AB" mask="url(#path-1-outside-1)"/>
</svg>
