<svg width="315" height="269" viewBox="0 0 315 269" fill="none" xmlns="http://www.w3.org/2000/svg">
<path d="M8.64502 151.204C8.64502 151.204 43.5393 66.3152 159.307 131.285C288.807 203.998 302.687 112.356 302.687 112.356" stroke="white" stroke-width="2" stroke-miterlimit="10"/>
<path d="M69.1122 255.501C69.1122 255.501 160.118 267.398 161.258 134.65C162.501 -13.8614 248.926 19.627 248.926 19.627" stroke="white" stroke-width="2" stroke-miterlimit="10"/>
<path d="M78.5222 237.605L28.8516 151.93" stroke="white" stroke-width="2" stroke-miterlimit="10"/>
<path d="M108.476 225.892L53.8994 131.755" stroke="white" stroke-width="2" stroke-miterlimit="10"/>
<path d="M132.129 200.874L87.3643 123.661" stroke="white" stroke-width="2" stroke-miterlimit="10"/>
<path d="M146.306 164.388L126.683 130.542" stroke="white" stroke-width="2" stroke-miterlimit="10"/>
<path d="M240.395 29.2866L290.065 114.962" stroke="white" stroke-width="2" stroke-miterlimit="10"/>
<path d="M212.556 39.7727L267.132 133.909" stroke="white" stroke-width="2" stroke-miterlimit="10"/>
<path d="M191.021 63.5656L235.785 140.779" stroke="white" stroke-width="2" stroke-miterlimit="10"/>
<path d="M176.842 100.05L196.465 133.897" stroke="white" stroke-width="2" stroke-miterlimit="10"/>
</svg>
