<svg width="277" height="207" viewBox="0 0 277 207" fill="none" xmlns="http://www.w3.org/2000/svg">
<circle cx="140.44" cy="106.922" r="98.0784" stroke="white" stroke-width="2"/>
<path d="M237.539 6.00006C237.539 5.44777 237.091 5.00005 236.539 5.00006L227.539 5.00005C226.987 5.00006 226.539 5.44776 226.539 6.00005C226.539 6.55232 226.987 7.00004 227.539 7.00005L235.539 7.00005L235.539 15.0001C235.539 15.5523 235.987 16 236.539 16.0001C237.091 16 237.539 15.5523 237.539 15.0001L237.539 6.00006ZM42.0684 201.885L237.246 6.70715L235.832 5.29294L40.6542 200.471L42.0684 201.885Z" fill="white"/>
<path d="M202.178 6.00006C202.178 5.44777 201.73 5.00005 201.178 5.00006L192.178 5.00005C191.625 5.00006 191.178 5.44776 191.178 6.00005C191.178 6.55232 191.625 7.00004 192.178 7.00005L200.178 7.00005L200.178 15.0001C200.178 15.5523 200.625 16 201.178 16.0001C201.73 16 202.178 15.5523 202.178 15.0001L202.178 6.00006ZM6.70711 201.885L201.885 6.70715L200.47 5.29294L5.29289 200.471L6.70711 201.885Z" fill="white"/>
<path d="M271.762 6.00006C271.762 5.44777 271.314 5.00005 270.762 5.00006L261.762 5.00005C261.209 5.00006 260.762 5.44776 260.762 6.00005C260.762 6.55232 261.209 7.00004 261.762 7.00005L269.762 7.00005L269.762 15.0001C269.762 15.5523 270.209 16 270.762 16.0001C271.314 16 271.762 15.5523 271.762 15.0001L271.762 6.00006ZM76.2911 201.885L271.469 6.70715L270.054 5.29294L74.8769 200.471L76.2911 201.885Z" fill="white"/>
</svg>
