<svg width="29" height="42" viewBox="0 0 29 42" fill="none" xmlns="http://www.w3.org/2000/svg">
<path d="M21.1568 7.3578C21.1568 11.0596 18.1743 14.0554 14.5013 14.0554C10.8283 14.0554 7.8457 11.0596 7.8457 7.3578C7.8457 3.65602 10.8283 0.660156 14.5013 0.660156C18.1743 0.660156 21.1568 3.65602 21.1568 7.3578Z" stroke="white"/>
<path d="M1 27.8333C1 26.0493 1.34935 24.2827 2.02802 22.6346C2.70669 20.9865 3.70136 19.4892 4.95509 18.2281C6.20882 16.967 7.69705 15.9668 9.33473 15.2845C10.9724 14.6021 12.7276 14.251 14.5 14.251C16.2724 14.251 18.0276 14.6021 19.6653 15.2845C21.303 15.9668 22.7912 16.967 24.0449 18.2281C25.2986 19.4892 26.2933 20.9865 26.972 22.6346C27.6507 24.2827 28 26.0493 28 27.8333" stroke="white"/>
</svg>
