<svg width="161" height="55" viewBox="0 0 161 55" fill="none" xmlns="http://www.w3.org/2000/svg">
<path d="M1 0H161V55H1V0Z" fill="white"/>
<path d="M43.7104 27.552C43.7104 29.776 42.9504 31.528 41.4304 32.808C39.9264 34.072 37.7584 34.776 34.9264 34.92V36.744H31.3504V34.896C28.5024 34.736 26.3184 34.024 24.7984 32.76C23.2944 31.48 22.5424 29.744 22.5424 27.552C22.5424 25.344 23.2944 23.616 24.7984 22.368C26.3184 21.104 28.5024 20.384 31.3504 20.208V18.48H34.9264V20.184C37.7584 20.344 39.9264 21.064 41.4304 22.344C42.9504 23.624 43.7104 25.36 43.7104 27.552ZM34.9264 31.872C36.6224 31.712 37.8864 31.28 38.7184 30.576C39.5504 29.856 39.9664 28.84 39.9664 27.528C39.9664 24.968 38.2864 23.544 34.9264 23.256V31.872ZM26.3104 27.552C26.3104 30.08 27.9904 31.52 31.3504 31.872V23.256C29.6384 23.416 28.3664 23.848 27.5344 24.552C26.7184 25.24 26.3104 26.24 26.3104 27.552ZM61.2111 19.2V36H57.3471V22.368H49.7631V36H45.8991V19.2H61.2111ZM64.6557 19.2H68.5197V30.144L76.5357 19.2H80.1837V36H76.3437V25.08L68.3277 36H64.6557V19.2ZM105.131 19.2V36H101.243V29.112H93.6115V36H89.7235V19.2H93.6115V25.824H101.243V19.2H105.131ZM121.461 22.368H116.085V36H112.245V22.368H106.893V19.2H121.461V22.368ZM130.892 36.288C129.18 36.288 127.628 35.92 126.236 35.184C124.86 34.432 123.772 33.4 122.972 32.088C122.188 30.76 121.796 29.264 121.796 27.6C121.796 25.936 122.188 24.448 122.972 23.136C123.772 21.808 124.86 20.776 126.236 20.04C127.628 19.288 129.188 18.912 130.916 18.912C132.372 18.912 133.684 19.168 134.852 19.68C136.036 20.192 137.028 20.928 137.828 21.888L135.332 24.192C134.196 22.88 132.788 22.224 131.108 22.224C130.068 22.224 129.14 22.456 128.324 22.92C127.508 23.368 126.868 24 126.404 24.816C125.956 25.632 125.732 26.56 125.732 27.6C125.732 28.64 125.956 29.568 126.404 30.384C126.868 31.2 127.508 31.84 128.324 32.304C129.14 32.752 130.068 32.976 131.108 32.976C132.788 32.976 134.196 32.312 135.332 30.984L137.828 33.288C137.028 34.264 136.036 35.008 134.852 35.52C133.668 36.032 132.348 36.288 130.892 36.288Z" fill="#101B51"/>
</svg>
