<svg width="35" height="49" viewBox="0 0 35 49" fill="none" xmlns="http://www.w3.org/2000/svg">
<path d="M2.88015 26.9601L17.4971 49L32.1141 26.9601C33.8521 24.338 34.8434 21.2972 34.9829 18.1604C35.1224 15.0236 34.4049 11.9077 32.9065 9.14347C31.4081 6.3792 29.1847 4.06963 26.4722 2.45981C23.7597 0.850002 20.6593 0 17.5 0C14.3407 0 11.2403 0.850002 8.52779 2.45981C5.8153 4.06963 3.59189 6.3792 2.09348 9.14347C0.59507 11.9077 -0.122442 15.0236 0.0170756 18.1604C0.156593 21.2972 1.14794 24.338 2.88592 26.9601H2.88015ZM17.4971 8.45602C19.2454 8.45602 20.9544 8.97125 22.408 9.93656C23.8616 10.9019 24.9946 12.2739 25.6636 13.8792C26.3327 15.4844 26.5077 17.2508 26.1666 18.9549C25.8256 20.659 24.9837 22.2244 23.7475 23.453C22.5113 24.6816 20.9363 25.5183 19.2216 25.8572C17.5069 26.1962 15.7296 26.0222 14.1144 25.3573C12.4993 24.6924 11.1187 23.5664 10.1474 22.1217C9.17616 20.677 8.65774 18.9785 8.65774 17.241C8.66079 14.912 9.59306 12.6793 11.2501 11.0324C12.9071 9.38559 15.1537 8.45905 17.4971 8.45602Z" fill="#2C57AB"/>
</svg>
